<?xml version="1.0" encoding="UTF-8"?> <svg xmlns="http://www.w3.org/2000/svg" width="156" height="40" viewBox="0 0 156 40" fill="none"><g clip-path="url(#clip0_39_46)"><rect width="156" height="40" fill="white"></rect><path d="M2.21569 4.15031H11.1154C13.9958 4.15031 16.2853 4.96273 17.984 6.55063C19.7196 8.13855 20.569 10.2434 20.569 12.8284C20.569 15.3765 19.7196 17.4444 18.0209 18.9585C16.3222 20.4725 14.0327 21.2111 11.1154 21.2111H7.05327V30H2.21569V4.15031ZM7.05327 17.0382H10.8569C13.9219 17.0382 15.7314 15.6719 15.7314 12.8284C15.7314 10.0219 13.9219 8.61861 10.8569 8.61861H7.05327V17.0382ZM35.2958 10.5019C35.8866 10.5019 36.3298 10.5389 36.6252 10.5758V15.118C36.3667 15.081 35.9605 15.0441 35.4435 15.0441C33.634 15.0441 32.0461 15.635 30.7536 16.8167C29.4611 17.9984 28.7595 19.5493 28.5749 21.4696V30H23.8111V10.7974H28.5749V15.635C29.4242 12.6438 31.8984 10.5019 35.2958 10.5019Z" fill="black"></path><path d="M77.6915 13.5301V10.7974H82.4183V30C82.4183 35.7977 76.8422 37.6072 72.7801 37.6072C70.5275 37.6072 68.7549 37.2379 67.4624 36.4624V32.548C68.718 33.2866 70.4905 33.6559 72.7801 33.6559C75.9928 33.6559 77.6915 32.031 77.6915 30V27.2673H77.433C76.6575 28.7814 74.4788 30.3693 71.5245 30.3693C69.1242 30.3693 66.9085 29.483 64.9513 27.7474C62.9941 25.9748 62.034 23.5376 62.034 20.3987C62.034 17.2598 62.9941 14.8225 64.9513 13.0869C66.9085 11.3144 69.1242 10.4281 71.5245 10.4281C74.4788 10.4281 76.6575 12.016 77.433 13.5301H77.6915ZM68.2748 24.6454C69.3827 25.6425 70.6752 26.1595 72.1892 26.1595C73.7033 26.1595 74.9958 25.6425 76.1036 24.6454C77.2484 23.6484 77.8023 22.2082 77.8023 20.3987C77.8023 18.5892 77.2484 17.149 76.1036 16.1519C74.9958 15.1549 73.7033 14.6379 72.1892 14.6379C70.6752 14.6379 69.3827 15.1549 68.2748 16.1519C67.2039 17.149 66.65 18.5892 66.65 20.3987C66.65 22.2082 67.2039 23.6484 68.2748 24.6454ZM97.8465 10.5019C98.4373 10.5019 98.8805 10.5389 99.1759 10.5758V15.118C98.9174 15.081 98.5112 15.0441 97.9942 15.0441C96.1847 15.0441 94.5968 15.635 93.3043 16.8167C92.0118 17.9984 91.3102 19.5493 91.1256 21.4696V30H86.3618V10.7974H91.1256V15.635C91.9749 12.6438 94.4491 10.5019 97.8465 10.5019ZM111.72 24.2761L117.37 10.7974H122.244L113.862 30L110.612 37.0163H105.885L109.32 29.5199L101.195 10.7974H106.07L111.72 24.2761ZM138.313 15.1918L134.361 16.2627C133.733 14.8964 132.81 14.2317 131.592 14.2317C130.373 14.2317 129.413 14.9333 129.413 15.9673C129.413 16.8167 130.041 17.4814 131.259 17.9614L133.512 18.7369C135.247 19.3647 136.134 19.7709 137.279 20.6572C138.46 21.5065 138.977 22.7621 138.977 24.4239C138.977 26.3072 138.276 27.7474 136.835 28.8183C135.395 29.8523 133.66 30.3693 131.555 30.3693C127.677 30.3693 124.871 28.4121 124.095 25.0516L127.862 23.8699C128.416 25.4578 129.745 26.5657 131.555 26.5657C133.143 26.5657 134.361 25.6794 134.361 24.4977C134.361 23.6484 133.696 22.9837 132.367 22.4667L130.151 21.6912C126.606 20.3987 124.834 18.4784 124.834 15.9304C124.834 14.2686 125.462 12.9392 126.754 11.9421C128.046 10.9451 129.597 10.4281 131.407 10.4281C134.804 10.4281 137.242 12.2376 138.313 15.1918ZM155.226 15.1918L151.275 16.2627C150.647 14.8964 149.724 14.2317 148.505 14.2317C147.286 14.2317 146.326 14.9333 146.326 15.9673C146.326 16.8167 146.954 17.4814 148.173 17.9614L150.425 18.7369C152.161 19.3647 153.047 19.7709 154.192 20.6572C155.374 21.5065 155.891 22.7621 155.891 24.4239C155.891 26.3072 155.189 27.7474 153.749 28.8183C152.309 29.8523 150.573 30.3693 148.468 30.3693C144.591 30.3693 141.784 28.4121 141.009 25.0516L144.775 23.8699C145.329 25.4578 146.659 26.5657 148.468 26.5657C150.056 26.5657 151.275 25.6794 151.275 24.4977C151.275 23.6484 150.61 22.9837 149.28 22.4667L147.065 21.6912C143.52 20.3987 141.747 18.4784 141.747 15.9304C141.747 14.2686 142.375 12.9392 143.667 11.9421C144.96 10.9451 146.511 10.4281 148.32 10.4281C151.718 10.4281 154.155 12.2376 155.226 15.1918Z" fill="black"></path><g clip-path="url(#clip1_39_46)"><g clip-path="url(#clip2_39_46)"><path d="M49.48 10C49.3813 10 49.3813 10 49.2825 10C49.2825 10 49.2825 10 49.1837 10C48.9862 10 48.8875 10 48.69 10L48.8875 11.975C49.2825 11.975 49.7762 11.975 50.1712 11.975C54.1213 12.2713 57.38 15.4313 57.5775 19.48C57.775 23.825 54.4175 27.5775 50.0725 27.775C50.0725 27.775 49.9738 27.775 49.875 27.775C49.5788 27.775 49.1838 27.775 48.8875 27.775L48.7888 29.75C49.1838 29.75 49.5788 29.75 50.0725 29.75C50.1713 29.75 50.3688 29.75 50.4675 29.75C55.8 29.355 59.8488 24.8125 59.6513 19.48C59.4538 14.4438 55.405 10.4937 50.4675 10.0987C50.27 10.0987 50.1713 10.0987 49.9738 10.0987C49.7763 10 49.6775 10 49.48 10ZM46.0238 10.6913C45.53 10.9875 45.0363 11.185 44.5425 11.4813L45.6288 13.16C45.925 12.9625 46.32 12.765 46.715 12.5675L46.0238 10.6913ZM42.37 13.3575C41.975 13.7525 41.6788 14.2462 41.3825 14.6412L43.0613 15.6287C43.2588 15.3325 43.555 15.0362 43.8513 14.6412L42.37 13.3575ZM53.1338 16.32L48.5913 21.455L45.925 19.3813L44.8388 21.06L48.9863 24.22L54.7138 17.7025L53.1338 16.32ZM40.2963 16.9125C40.0988 17.4063 40 17.9988 40 18.4925L41.975 18.7887C42.0738 18.3937 42.0738 17.9 42.2713 17.505L40.2963 16.9125ZM41.975 20.8625L40 21.06C40 21.1587 40 21.2575 40 21.3563C40.0988 21.7513 40.1975 22.245 40.2963 22.64L42.1725 22.0475C42.0738 21.7512 41.975 21.3563 41.975 20.9613V20.8625ZM43.0613 24.0225L41.3825 25.1087C41.6788 25.6025 41.975 25.9975 42.37 26.3925L43.8513 25.1087C43.555 24.7137 43.2588 24.4175 43.0613 24.0225ZM45.6288 26.59L44.5425 28.2688C45.0363 28.565 45.53 28.7625 46.0238 29.0587L46.8138 27.2813C46.32 26.985 45.925 26.7875 45.6288 26.59Z" fill="black"></path></g></g></g><defs><clipPath id="clip0_39_46"><rect width="156" height="40" fill="white"></rect></clipPath><clipPath id="clip1_39_46"><rect width="24" height="24" fill="white" transform="translate(38 9)"></rect></clipPath><clipPath id="clip2_39_46"><rect width="27" height="27" fill="white" transform="translate(36 7)"></rect></clipPath></defs></svg> 