<svg xmlns="http://www.w3.org/2000/svg" version="1.2" viewBox="0 0 5164 2950" width="200" height="90">
	<title>new_thailand_tourism_logo-ai</title>
	<style>
		.s0 { fill: #ffcd07 } 
		.s1 { fill: #ffffff } 
		.s2 { fill: #454442;stroke: #454442;stroke-miterlimit:10;stroke-width: 2 } 
		.s3 { fill: #454442;stroke: #454442;stroke-miterlimit:10;stroke-width: 3 } 
		.s4 { fill: #ffcd07;stroke: #ffcd06;stroke-miterlimit:10;stroke-width: 3 } 
		.s5 { fill: #454442 } 
	</style>
	<g id="text">
		<g id="&lt;Group&gt;">
			<g id="&lt;Group&gt;">
				<path id="&lt;Path&gt;" class="s0" d="m4087.3 1650.2c0 0-31.7 153.3 91.6 188 0 0-6.8 52.2 39.4 74.9 46.3 22.6 113.2-5.3 112.5-58.3 0 0 8.3 38-18.5 73.1-38.8 50.9 4.9 154.3 80.9 125.4 0 0-47.6-21-3.1-75.5 44.6-54.6 108.7-111.1 53.4-223.8-57.3-103-164.9-56.3-234-49.4-49.9 5-103.7 8.9-122.2-54.4z"/>
				<g id="&lt;Group&gt;">
					<path id="&lt;Path&gt;" class="s0" d="m4547.4 1831.5c0 0 56.7-18.8 49.1-94.9-7.6-76.1-92.9-110-92.9-110 46.2 58.1-33.6 128.8-33.6 128.8 0 0 40.4 105.6-18.5 175.1 137 7.2 143.3-99.7 143.3-99.7-22.3 19.4-47.4 0.7-47.4 0.7z"/>
				</g>
				<path id="&lt;Path&gt;" class="s0" d="m4769.6 1808.7c0 0 23.4 6.8 46.5-4.6 0 0-66.9 114.7-263.1 116.6 22.6-12.1 36.8-29.7 45.3-49.2 26.6-3.3 118.5-21 165-110.7 54.6-105.6 0.5-221.5 0.5-221.5 0 0 29-21.1 25.4-48.8-3.5-27.7-32.9-25.5-32.9-25.5 0 0 22.6 6.1 22.5 27.3-0.1 21.3-13.7 30.2-13.7 30.2 0 0-48 35.2-77.3-30.2-29.3-65.3-3.1-121 39.3-137.4 0 0-6.3 12.8 4.4 28.4 0 0-7.3-41.8 26.2-55.7 33.5-14 81.7-32.5 71.6-72.4 0 0 36.4 44.8 2.6 71-33.8 26.1-22.9 73.6-12.4 102.9 10.5 29.2 75.3 160.8 8.3 203.9 0 0 35.9-5.1 55.4-22.2 0 0 11.5 159.6-113.6 197.9z"/>
				<path id="&lt;Path&gt;" class="s0" d="m4759.9 1727.8c-21.6 92.6-118.2 126.4-158.8 136.7 2.4-6.6 4.2-13.3 5.5-20.2 86.4-36.8 135.7-123.6 120.6-216.4-15.8-97-57.7-151.9-181.5-221.4-123.8-69.5-131.6-193.1-131.6-193.1 6.9 23.6 25.4 26.3 25.4 26.3-34-66.4 25.1-172.4 25.1-172.4 2.3 37.6 23.7 77.2 56.2 99 32.6 21.7 68.6 33.3 86 85.4 17.3 52.1-10.6 76.1-45.1 79.6-33.5 3.4-46.2-13.9-47-14.9 22.2 46.9 75.3 17.4 75.3 17.4 13.3 35 79.5 89.8 79.5 89.8 0 0-13.7 21.9 3.9 61.1 29.7 69.8 70.6 53.6 70.6 53.6 0 0 43.5 71.4 15.9 189.5z"/>
				<path id="&lt;Path&gt;" class="s0" d="m4608.6 1831.4q0.4-3.7 0.7-7.4c43.7-24.4 71.4-77.3 58.2-168.1-14.3-99.1-112.2-126.2-115.3-127.1 2.8 1.2 92.1 40 101.2 145.5 6 70.2-22.9 110-43.6 129.1-0.6-20.7-3.9-39.2-6.7-51.4 6.3-21.2 10.6-50.4 3.5-84.5-14.6-70.6-86-108.5-86-108.5 20.1-34.3-18-62.7-19.8-64 23.8 29.2 18.2 92.7-59.7 94.5-77.9 1.8-102.4-78.3-104.5-114.1-2.1-35.9-17.7-41.8-17.7-41.8 20.2-8 29.1 6.1 29.1 6.1-21.1-91 47.7-183.5 47.7-183.5 0 0 3.4 79.3 48.2 106.3 44.7 27 118.2 70.7 114.5 108.6 0 0 20.5-20.1 3.7-37.9 0 0 101 48.4 115.7 105.5 14.7 57.1-3.8 81.5-3.8 81.5 0 0 28.5 0.2 35.2-23 0 0 47.9 164.9-100.6 234.2z"/>
				<path id="&lt;Path&gt;" class="s0" d="m4768.8 888.6c1.3 2.9 18.2 60.9-44.4 91.4-62.7 30.6-114.2 62-123.8 107.5 0 0-9.5-4.1-6-29.8 0 0-58.9 47.4-67.7 100.9 0 0 53.3 16.9 79.8 59.7 26.5 42.9 21.9 96.9-4.3 108.7 0 0 17.9 46.7 66.9 82.2 0 0 10.1-40.4 41.1-54.6 0 0-104.9-67.4-59.6-190.2 0 0 2.9 29 47.4 38.7 44.5 9.7 111.3-19.3 123.1-113.5 11.8-94.2-52.5-201-52.5-201z"/>
				<path id="&lt;Path&gt;" class="s0" d="m4721.1 695.2c0 0-32.3 21.4-6.5 66.4 25.7 44.9 60.3 117.3 33.3 160.4-27 43.2-65.2 66.2-119.2 91.9-54.1 25.6-104.1 91.3-112.2 131.6 0 0-49.2-46.7-38.6-112.4 10.6-65.8 75.4-104.7 75.4-104.7 0 0-9.8 23.2 4.1 40.1 0 0-12.5-43.3 35.9-75.4 48.3-32.2 105-52 93.2-89.3-11.9-37.2-19.7-95.1 34.6-108.6z"/>
				<path id="&lt;Path&gt;" class="s0" d="m4286.1 1933.1c0 0-72.9 29.3-118.8-35.1 0 0-12.6 63.4 39.5 91.6 0 0-16.8 6.2-25.1-8.1 0 0 31.6 103.7 125.5 56.4 0 0-37-20.6-21.1-104.8z"/>
			</g>
			<g id="&lt;Group&gt;">
				<path id="&lt;Compound Path&gt;" class="s0" d="m4206.5 1961c-39.5 10.1-145.2 16.5-178.5 15.7-340-8-609.2-283.7-601.4-615.7 7.8-332 289.8-594.7 629.8-586.7 7.6 0.2 15.2 0.5 22.8 1-0.4-13.6-0.6-25.5-0.7-35.6q-13.6-0.9-27.3-1.2c-363.3-8.6-664.7 274.9-673.2 633.2-8.4 358.4 279.2 655.8 642.6 664.4 36.6 0.9 147.8 6.5 214.8-17.1-0.8-17.7-28-36.7-28.9-58z"/>
				<path id="&lt;Path&gt;" class="s0" d="m4068.3 739.9c0 0 279.9-5.3 417 156.7 0 0-78.5-87.2-176.9-93.5-98.5-6.3-123 9-165.8 29.8-42.8 20.9-85.3 30.8-104.4-12.3-20.1-45.5 35.8-64.7 35.8-64.7z"/>
			</g>
			<path id="&lt;Path&gt;" class="s0" d="m4162.8 1956.8c-35.7 5.7-72.5 8.2-109.9 7.3-335-7.9-600.1-285.9-592.2-620.9 1.3-55.7 10.1-109.4 25.4-160.3-9.2 40-14.5 81.6-15.5 124.3-8.1 342.5 263 626.7 605.5 634.8 27.4 0.6 54.4-0.5 81-3.3 0.9 5.6 2.6 12.1 5.7 18.1z"/>
		</g>
		<path id="&lt;Path&gt;" class="s1" d="m3735.7 1587.3l-95.8 91.9-508.4-529.4 95.7-91.9z"/>
		<path id="&lt;Compound Path&gt;" class="s2" d="m267.9 1246.4c-17.2-20.4-25.8-58.1-25.8-78.3q0-30.2 14.1-52.2 14.2-22 45.7-37.4 31.5-15.3 71.3-15.3h340.3q25.7 0 56.8-5 31.1-5 43.6-10v121.9l-8.3-0.8v-14.2q0-19.9-14.1-34.4-14.2-14.5-33.2-15.3h-157.7v479.7q0.8 29.9 26.6 44.8 12.4 6.7 26.5 6.7h10.8v8.3h-181.7v-8.3h10.8q21.5 0 36.9-15 15.3-14.9 16.2-35.7v-480.5h-173.5q-66.3 0-96.2 42.3-15.8 21.6-15.8 45.2 0 23.7 13.3 49.4z"/>
		<g id="&lt;Group&gt;">
			<path id="&lt;Compound Path&gt;" class="s3" d="m920 1167.5h-2.2q-0.8-19.2-14.4-32.8-13.6-13.6-32.8-13.6h-9.6v-7.4h59zm0 408.1v53.8h-59v-7.4h9.6q19.2 0 32.8-13.6 13.6-13.6 14.4-32.8zm45.6-461.9v515.7h-47.8v-515.7zm307.9 249.8v22.1h-315.3v-22.1zm-310.2-196v-53.8h59v7.4q-0.8 0-9.6 0-19.2 0-32.8 13.6-13.6 13.7-14.4 32.8zm0 408.1h2.3q0.7 19.2 14.3 32.8 13.6 13.6 32.8 13.6 8.8 0 9.6 0v7.4h-59zm305.8-408.1h-2.2q0-19.2-14-32.8-14-13.6-33.2-13.6-8.8 0-9.6 0v-7.4h59zm0 408.1v53.8h-59v-7.4q0.8 0 9.6 0 19.2 0 33.2-13.6 14-13.6 14-32.8zm45.6-461.9v515.7h-47.8v-515.7zm-2.3 53.8v-53.8h59v7.4h-9.6q-19.2 0-32.8 13.6-13.6 13.7-14.3 32.8zm0 408.1h2.2q0.7 19.2 14.3 32.8 13.7 13.6 32.8 13.6h9.6v7.4h-58.9z"/>
			<path id="&lt;Compound Path&gt;" class="s3" d="m1521.8 1575.6q-5.1 14.8-1.4 25.1 3.6 10.3 12.1 15.8 8.5 5.5 17.3 5.5h6.7v7.4h-148.1v-7.4h6.6q17 0 35-10.7 18.1-10.6 29.8-35.7zm158.4-472.2l6.7 51.6-184.9 472.2h-44.2l188.5-447.9q8.1-18.4 13.7-31.7 5.5-13.3 9.6-25.8 4-12.5 4-18.4zm103.9 324.9v22.1h-230.6v-22.1zm-103.9-324.9l218.1 521.6h-62.6l-170.2-451.6zm137 472.2h60.4q11.1 25.1 29.5 35.7 18.4 10.7 35.4 10.7h5.8v7.4h-165.7v-7.4h6.6q14 0 25.1-12.1 11-12.2 2.9-34.3z"/>
			<path id="&lt;Compound Path&gt;" class="s3" d="m2043.4 1167.5h-2.2q-0.7-19.2-14.4-32.8-13.6-13.6-32.7-13.6h-9.6v-7.4h58.9zm0 408.1v53.8h-58.9v-7.4h9.6q19.1 0 32.7-13.6 13.7-13.6 14.4-32.8zm45.7-461.9v515.7h-47.9v-515.7zm-2.2 53.8v-53.8h58.9v7.4q-0.7 0-9.6 0-19.1 0-32.7 13.6-13.7 13.7-14.4 32.8zm0 408.1h2.2q0.7 19.2 14.4 32.8 13.6 13.6 32.7 13.6 8.9 0 9.6 0v7.4h-58.9z"/>
		</g>
		<g id="&lt;Group&gt;">
			<path id="&lt;Compound Path&gt;" class="s4" d="m2288 1167.5h-2.2q-0.7-19.2-14.3-32.8-13.7-13.6-32.8-13.6h-9.6v-7.4h58.9zm0 408.1v53.8h-58.9v-7.4h9.6q19.1 0 32.8-13.6 13.6-13.6 14.3-32.8zm45.7-461.9v515.7h-47.9v-515.7zm-2.2 53.8v-53.8h58.9v7.4q-0.7 0-9.5 0-19.2 0-32.8 13.6-13.7 13.7-14.4 32.8zm201.1 439.1v22.8h-201.1v-22.8zm44.9-96.5l-42.7 119.3h-122.3l26.6-22.8q39 0 63.7-12.2 24.7-12.1 40.1-34.2 15.5-22.1 27.3-50.1z"/>
			<path id="&lt;Compound Path&gt;" class="s4" d="m2705 1575.6q-5.2 14.8-1.5 25.1 3.7 10.3 12.2 15.8 8.4 5.5 17.3 5.5h6.6v7.4h-148.1v-7.4h6.7q16.9 0 35-10.7 18-10.6 29.8-35.7zm158.4-472.2l6.6 51.6-184.9 472.2h-44.2l188.6-447.9q8.1-18.4 13.6-31.7 5.6-13.3 9.6-25.8 4.1-12.5 4.1-18.4zm103.8 324.9v22.1h-230.5v-22.1zm-103.9-324.9l218 521.6h-62.6l-170.2-451.6zm137.1 472.2h60.4q11 25.1 29.4 35.7 18.5 10.7 35.4 10.7h5.9v7.4h-165.8v-7.4h6.7q14 0 25-12.1 11.1-12.2 3-34.3z"/>
			<path id="&lt;Compound Path&gt;" fill-rule="evenodd" class="s4" d="m3156.6 1629.4v-7.4q13.2 0 14 0 18.4 0 31.7-13.2 13.2-13.3 13.2-31.7v-382.4q0-37.5-6.6-92h7.4l401.4 428.4v-365.1q-0.7-19.1-13.6-32-12.9-12.9-32-12.9-13.3 0-14 0v-7.4h151.7v7.4h-13.2q-18.4 0-31.7 12.9-13.3 12.9-14 32v379.4q0 23.6 1.5 45.3 1.4 21.8 5.1 49h-6.6l-402.1-428.4 0.5 365.8h-2.1v52.3zm92.8 0l-0.1-52.3h0.1q0 18.4 13.3 31.7 13.2 13.2 31.7 13.2 0.7 0 14 0v7.4z"/>
			<path id="&lt;Compound Path&gt;" class="s4" d="m3838.8 1167.5h-2.3q0-19.2-14-32.8-14-13.6-33.1-13.6h-8.8l-0.8-7.4h59zm0 408.1v53.8h-59v-7.4h9.6q19.1 0 32.8-13.6 13.6-13.6 14.3-32.8zm45.7-461.9v515.7h-47.9v-515.7zm145.2 0q78.8 0 138.1 32.1 59.3 32 92.8 90.2 33.5 58.2 33.5 135.6 0 77.3-33.5 135.2-33.5 57.8-92.8 90.2-59.3 32.4-138.1 32.4h-157.7l-0.7-22.1q31.6 0 55.6 0 23.9 0 47.5 0 23.6 0 55.3 0 63.3 0 110.1-29.5 46.8-29.4 72.9-82.5 26.2-53 26.2-123.7 0-70.8-26.2-123.8-26.1-53-73.3-82.5-47.1-29.5-109.7-29.5-33.2 0-57.9 0-24.7 0-49.3 0-24.7 0-58.6 0v-22.1z"/>
		</g>
		<g id="tourism">
			<g id="&lt;Group&gt;">
				<path id="&lt;Compound Path&gt;" fill-rule="evenodd" class="s5" d="m490.7 1744.3h168.8v24.1h-72v195.5h-25.2v-195.5h-71.6zm611.2 109.8c0 61.8-50.9 111.1-115 111.1-64.4 0-115.3-49.3-115.3-111.1 0-62.1 50.9-110.4 115.3-110.4 64.1 0 115 48.6 115 110.4zm-25.8 0c0-48.3-40.2-86.6-89.2-86.6-49 0-89.9 38.3-89.9 86.6 0 48.4 40.9 86.9 89.9 86.9 49 0 89.2-38.5 89.2-86.9zm436.8-109.8h25.2v129.3c0 57.1-34.6 91.6-92.1 91.6-57.8 0-92.7-34.5-92.7-91.6v-129.3h25.1v129.3c0 42.7 25.8 67.4 67.6 67.4 41.8 0 66.9-24.7 66.9-67.4zm418.3 144.9l51.5 74.7h-28.6l-45.5-69.9c-4.8 0.3-9.8 0.6-14.8 0.6h-58.5v69.3h-25.1v-219.6h83.6c55 0 86.7 27 86.7 73.7 0 36.4-17.6 60.9-49.3 71.2zm25.1-70.5c0-33.3-22.6-50.2-62.5-50.2h-58.5v101.9h58.5c39.9 0 62.5-17.6 62.5-51.7zm291.6-74.4h25.2v219.6h-25.2zm442.8 160.3c0 36.8-32.4 60.3-79.5 60.3-32.1 0-63.5-13.8-84.2-33.6l11.3-22.6c20.4 19.8 48.4 31.1 73.2 31.1 31.7 0 51.5-12.9 51.5-33.9 0.4-57.7-123.5-27-123.5-105.7 0-34.5 30.5-56.8 76.1-56.8 25.5 0 51.5 8.1 69.8 20.4l-10.7 23.5c-19.8-13.2-43.1-18.5-60.7-18.5-28.3 0-46.8 10.7-46.8 29.2 0 56.4 123.8 27 123.5 106.6zm484.6-160.3v219.6h-23.3l-0.3-181-80.1 157.8h-15.1l-79.8-157.8v181h-23.9v-219.6h31.1l80.4 158.2 80.2-158.2z"/>
			</g>
		</g>
	</g>
</svg>